<svg width="34" height="53" viewBox="0 0 34 53" fill="none" xmlns="http://www.w3.org/2000/svg">
<rect x="1" y="10" width="32" height="32" fill="#C4C4C4"/>
<path d="M18.7031 40H14.8594V16.4688H7.40625V40H3.84375V13.1406H29.7656V40H26.0156V16.4688H18.7031V40Z" fill="#DDBB90"/>
<rect x="17.6567" y="21" width="2" height="8" transform="rotate(45 17.6567 21)" fill="#331C11"/>
<rect x="28.6567" y="10" width="2" height="8" transform="rotate(45 28.6567 10)" fill="#331C11"/>
<rect x="6.65674" y="32" width="2" height="8" transform="rotate(45 6.65674 32)" fill="#331C11"/>
<rect x="20.4854" y="23.8284" width="2" height="8" transform="rotate(45 20.4854 23.8284)" fill="#331C11"/>
<rect x="31.4854" y="12.8284" width="2" height="8" transform="rotate(45 31.4854 12.8284)" fill="#331C11"/>
<rect x="9.48535" y="34.8284" width="2" height="8" transform="rotate(45 9.48535 34.8284)" fill="#331C11"/>
</svg>
