<svg width="60" height="60" fill="none" xmlns="http://www.w3.org/2000/svg"><path d="M30 0c-8.141 0-9.165.037-12.364.18-3.198.15-5.377.653-7.286 1.395a14.689 14.689 0 0 0-5.314 3.461 14.726 14.726 0 0 0-3.461 5.314C.833 12.255.326 14.438.18 17.625.038 20.831 0 21.851 0 30.004c0 8.145.037 9.165.18 12.363.15 3.196.653 5.374 1.395 7.283.769 1.973 1.793 3.645 3.461 5.314 1.665 1.669 3.338 2.696 5.31 3.461 1.913.742 4.088 1.249 7.283 1.395C20.83 59.962 21.85 60 30 60c8.149 0 9.165-.038 12.367-.18 3.192-.15 5.378-.653 7.287-1.395 2-.753 3.813-1.935 5.31-3.461 1.669-1.669 2.692-3.341 3.461-5.314.739-1.909 1.245-4.087 1.395-7.282.142-3.2.18-4.22.18-12.368 0-8.149-.038-9.169-.18-12.371-.15-3.192-.656-5.374-1.395-7.279a14.721 14.721 0 0 0-3.461-5.314 14.666 14.666 0 0 0-5.314-3.461C47.737.833 45.555.326 42.364.18 39.16.038 38.145 0 29.993 0h.01H30Zm-2.689 5.407h2.693c8.01 0 8.958.027 12.12.173 2.925.131 4.515.622 5.572 1.031 1.399.544 2.4 1.197 3.45 2.247 1.05 1.05 1.699 2.047 2.243 3.45.412 1.053.9 2.643 1.031 5.568.146 3.162.176 4.11.176 12.116 0 8.007-.03 8.96-.176 12.12-.131 2.925-.623 4.512-1.031 5.57a9.264 9.264 0 0 1-2.247 3.445c-1.05 1.05-2.047 1.7-3.45 2.243-1.05.413-2.64.9-5.568 1.035-3.162.142-4.11.176-12.12.176-8.01 0-8.963-.034-12.124-.176-2.925-.135-4.511-.623-5.569-1.035a9.293 9.293 0 0 1-3.45-2.242 9.3 9.3 0 0 1-2.25-3.45c-.409-1.054-.9-2.644-1.031-5.57-.143-3.16-.173-4.11-.173-12.123 0-8.01.03-8.955.173-12.116.135-2.925.622-4.515 1.035-5.573.544-1.398 1.196-2.4 2.246-3.45 1.05-1.05 2.048-1.699 3.45-2.242 1.058-.413 2.644-.9 5.569-1.035 2.768-.128 3.84-.165 9.431-.169v.007Zm18.705 4.98a3.6 3.6 0 1 0 0 7.201 3.6 3.6 0 0 0 0-7.2Zm-16.012 4.208a15.41 15.41 0 1 0-.48 30.815 15.41 15.41 0 0 0 .48-30.815Zm0 5.404a10.002 10.002 0 1 1 0 20.003 10.002 10.002 0 0 1 0-20.003Z" fill="#331C11"/></svg>