<svg width="60" height="50" fill="none" xmlns="http://www.w3.org/2000/svg"><path d="M18.848 49.25c22.642 0 35.028-18.761 35.028-35.003 0-.525 0-1.057-.022-1.582A25.07 25.07 0 0 0 60 6.282a24.968 24.968 0 0 1-7.084 1.943 12.379 12.379 0 0 0 5.427-6.814 24.499 24.499 0 0 1-7.827 2.974 12.323 12.323 0 0 0-20.985 11.227A34.969 34.969 0 0 1 4.155 2.754a12.334 12.334 0 0 0 3.817 16.432 12.461 12.461 0 0 1-5.572-1.53v.169a12.33 12.33 0 0 0 9.87 12.067 12.01 12.01 0 0 1-3.244.432c-.772.002-1.543-.07-2.302-.214a12.311 12.311 0 0 0 11.501 8.539 24.705 24.705 0 0 1-15.3 5.276A23.71 23.71 0 0 1 0 43.756a35.04 35.04 0 0 0 18.848 5.494Z" fill="#331C11"/></svg>