<svg width="60" height="43" fill="none" xmlns="http://www.w3.org/2000/svg"><path d="M30.191.496h.334c3.083.012 18.701.124 22.913 1.257a7.537 7.537 0 0 1 5.306 5.325c.379 1.425.645 3.31.825 5.257l.037.39.083.975.03.39c.243 3.428.273 6.638.277 7.339v.281c-.004.728-.037 4.155-.307 7.725l-.03.394-.034.39c-.188 2.145-.465 4.275-.881 5.842a7.526 7.526 0 0 1-5.306 5.325c-4.35 1.17-20.884 1.253-23.176 1.257h-.532c-1.159 0-5.951-.023-10.976-.195l-.638-.023-.326-.015-.641-.026-.642-.026c-4.162-.184-8.126-.48-9.952-.975a7.527 7.527 0 0 1-5.306-5.322C.832 34.498.555 32.364.367 30.22l-.03-.394-.03-.39A117.751 117.751 0 0 1 0 21.8v-.461c.007-.806.037-3.593.24-6.668l.026-.386.012-.195.03-.39.082-.975.037-.39c.18-1.946.447-3.836.825-5.257A7.526 7.526 0 0 1 6.56 1.753c1.826-.488 5.79-.788 9.952-.975L17.15.75l.645-.022.322-.011.642-.027c3.568-.115 7.139-.178 10.71-.19h.723V.495ZM24 12.534V30.6l15.589-9.03L24 12.534Z" fill="#331C11"/></svg>