<svg width="149" height="46" viewBox="0 0 149 46" fill="none" xmlns="http://www.w3.org/2000/svg">
<path d="M37.776 2.736V3.696C36.688 3.728 35.856 3.856 35.28 4.08C34.736 4.272 34.368 4.656 34.176 5.232C33.984 5.776 33.888 6.64 33.888 7.824V31.632C33.888 32.784 33.984 33.648 34.176 34.224C34.368 34.8 34.736 35.184 35.28 35.376C35.856 35.568 36.688 35.696 37.776 35.76V36.72C37.04 36.656 36.112 36.624 34.992 36.624C33.904 36.592 32.8 36.576 31.68 36.576C30.432 36.576 29.264 36.592 28.176 36.624C27.088 36.624 26.208 36.656 25.536 36.72V35.76C26.624 35.696 27.44 35.568 27.984 35.376C28.56 35.184 28.944 34.8 29.136 34.224C29.328 33.648 29.424 32.784 29.424 31.632V5.232L29.616 5.376L17.856 36.96H17.088L4.992 5.808V31.152C4.992 32.304 5.088 33.216 5.28 33.888C5.504 34.528 5.92 34.992 6.528 35.28C7.168 35.536 8.112 35.696 9.36 35.76V36.72C8.784 36.656 8.032 36.624 7.104 36.624C6.176 36.592 5.296 36.576 4.464 36.576C3.664 36.576 2.848 36.592 2.016 36.624C1.216 36.624 0.544 36.656 0 36.72V35.76C1.088 35.696 1.904 35.536 2.448 35.28C3.024 34.992 3.408 34.528 3.6 33.888C3.792 33.216 3.888 32.304 3.888 31.152V7.824C3.888 6.64 3.792 5.776 3.6 5.232C3.408 4.656 3.024 4.272 2.448 4.08C1.904 3.856 1.088 3.728 0 3.696V2.736C0.544 2.768 1.216 2.8 2.016 2.832C2.848 2.864 3.664 2.88 4.464 2.88C5.168 2.88 5.888 2.864 6.624 2.832C7.392 2.8 8.032 2.768 8.544 2.736L19.44 31.44L18.624 31.824L29.424 2.88C29.808 2.88 30.176 2.88 30.528 2.88C30.912 2.88 31.296 2.88 31.68 2.88C32.8 2.88 33.904 2.864 34.992 2.832C36.112 2.8 37.04 2.768 37.776 2.736Z" fill="white"/>
<path d="M47.7701 37.056C46.4581 37.056 45.3221 36.816 44.3621 36.336C43.4021 35.824 42.6661 35.12 42.1541 34.224C41.6741 33.328 41.4341 32.288 41.4341 31.104C41.4341 29.696 41.7541 28.544 42.3941 27.648C43.0661 26.752 43.9141 26.032 44.9381 25.488C45.9621 24.944 47.0341 24.496 48.1541 24.144C49.3061 23.76 50.3941 23.408 51.4181 23.088C52.4421 22.736 53.2741 22.336 53.9141 21.888C54.5861 21.44 54.9221 20.848 54.9221 20.112V17.136C54.9221 15.792 54.7141 14.768 54.2981 14.064C53.9141 13.36 53.3861 12.896 52.7141 12.672C52.0421 12.416 51.2901 12.288 50.4581 12.288C49.6581 12.288 48.7941 12.4 47.8661 12.624C46.9701 12.848 46.2501 13.312 45.7061 14.016C46.3141 14.144 46.8421 14.464 47.2901 14.976C47.7381 15.488 47.9621 16.144 47.9621 16.944C47.9621 17.744 47.7061 18.384 47.1941 18.864C46.6821 19.312 46.0261 19.536 45.2261 19.536C44.2981 19.536 43.6101 19.248 43.1621 18.672C42.7461 18.064 42.5381 17.392 42.5381 16.656C42.5381 15.824 42.7461 15.152 43.1621 14.64C43.5781 14.128 44.1061 13.648 44.7461 13.2C45.4821 12.688 46.4261 12.256 47.5781 11.904C48.7621 11.52 50.0901 11.328 51.5621 11.328C52.8741 11.328 53.9941 11.488 54.9221 11.808C55.8501 12.096 56.6181 12.528 57.2261 13.104C58.0581 13.872 58.6021 14.816 58.8581 15.936C59.1141 17.024 59.2421 18.336 59.2421 19.872V33.216C59.2421 34.016 59.3541 34.592 59.5781 34.944C59.8341 35.296 60.2181 35.472 60.7301 35.472C61.0821 35.472 61.4181 35.392 61.7381 35.232C62.0581 35.072 62.4421 34.816 62.8901 34.464L63.4181 35.28C62.7461 35.792 62.1061 36.224 61.4981 36.576C60.8901 36.896 60.0741 37.056 59.0501 37.056C58.1221 37.056 57.3541 36.896 56.7461 36.576C56.1381 36.256 55.6741 35.792 55.3541 35.184C55.0661 34.544 54.9221 33.744 54.9221 32.784C54.0581 34.224 53.0181 35.296 51.8021 36C50.6181 36.704 49.2741 37.056 47.7701 37.056ZM49.4981 35.136C50.5541 35.136 51.5301 34.832 52.4261 34.224C53.3541 33.616 54.1861 32.704 54.9221 31.488V22.08C54.5381 22.624 53.9781 23.088 53.2421 23.472C52.5061 23.824 51.7061 24.192 50.8421 24.576C49.9781 24.928 49.1461 25.36 48.3461 25.872C47.5781 26.352 46.9381 26.992 46.4261 27.792C45.9141 28.592 45.6581 29.632 45.6581 30.912C45.6581 32.192 45.9941 33.216 46.6661 33.984C47.3701 34.752 48.3141 35.136 49.4981 35.136Z" fill="white"/>
<path d="M76.8604 11.328C77.8844 11.328 78.8764 11.456 79.8364 11.712C80.7964 11.968 81.6604 12.352 82.4284 12.864C83.1644 13.344 83.7244 13.904 84.1084 14.544C84.4924 15.152 84.6844 15.824 84.6844 16.56C84.6844 17.424 84.4444 18.096 83.9644 18.576C83.4844 19.024 82.8764 19.248 82.1404 19.248C81.4364 19.248 80.8124 19.04 80.2684 18.624C79.7564 18.208 79.5004 17.616 79.5004 16.848C79.5004 16.112 79.6924 15.52 80.0764 15.072C80.4924 14.624 80.9724 14.336 81.5164 14.208C81.1964 13.632 80.6204 13.152 79.7884 12.768C78.9884 12.384 78.1244 12.192 77.1964 12.192C76.3964 12.192 75.5964 12.384 74.7964 12.768C73.9964 13.152 73.2604 13.792 72.5884 14.688C71.9164 15.552 71.3724 16.752 70.9564 18.288C70.5404 19.792 70.3324 21.68 70.3324 23.952C70.3324 26.768 70.6524 29.008 71.2924 30.672C71.9324 32.336 72.7644 33.536 73.7884 34.272C74.8444 34.976 75.9964 35.328 77.2444 35.328C78.0764 35.328 78.9244 35.168 79.7884 34.848C80.6524 34.528 81.4684 34.016 82.2364 33.312C83.0044 32.576 83.6604 31.6 84.2044 30.384L85.1164 30.72C84.7964 31.744 84.2684 32.784 83.5324 33.84C82.7964 34.864 81.8364 35.712 80.6524 36.384C79.4684 37.056 78.0124 37.392 76.2844 37.392C74.3004 37.392 72.5084 36.88 70.9084 35.856C69.3084 34.832 68.0284 33.376 67.0684 31.488C66.1404 29.568 65.6764 27.296 65.6764 24.672C65.6764 22.048 66.1404 19.744 67.0684 17.76C68.0284 15.744 69.3564 14.176 71.0524 13.056C72.7484 11.904 74.6844 11.328 76.8604 11.328Z" fill="white"/>
<path d="M93.6761 0C94.5081 0 95.2281 0.304 95.8361 0.912C96.4441 1.52 96.7481 2.24 96.7481 3.072C96.7481 3.904 96.4441 4.624 95.8361 5.232C95.2281 5.84 94.5081 6.144 93.6761 6.144C92.8441 6.144 92.1241 5.84 91.5161 5.232C90.9081 4.624 90.6041 3.904 90.6041 3.072C90.6041 2.24 90.9081 1.52 91.5161 0.912C92.1241 0.304 92.8441 0 93.6761 0ZM96.1721 11.472V32.256C96.1721 33.6 96.4441 34.512 96.9881 34.992C97.5641 35.472 98.5081 35.712 99.8201 35.712V36.72C99.2761 36.688 98.4441 36.656 97.3241 36.624C96.2361 36.56 95.1321 36.528 94.0121 36.528C92.9241 36.528 91.8201 36.56 90.7001 36.624C89.5801 36.656 88.7481 36.688 88.2041 36.72V35.712C89.5161 35.712 90.4441 35.472 90.9881 34.992C91.5641 34.512 91.8521 33.6 91.8521 32.256V17.232C91.8521 15.792 91.5961 14.736 91.0841 14.064C90.5721 13.36 89.6121 13.008 88.2041 13.008V12C89.2281 12.096 90.2201 12.144 91.1801 12.144C92.1081 12.144 92.9881 12.096 93.8201 12C94.6841 11.872 95.4681 11.696 96.1721 11.472Z" fill="white"/>
<path d="M114.267 11.328C115.291 11.328 116.283 11.456 117.243 11.712C118.203 11.968 119.067 12.352 119.835 12.864C120.571 13.344 121.131 13.904 121.515 14.544C121.899 15.152 122.091 15.824 122.091 16.56C122.091 17.424 121.851 18.096 121.371 18.576C120.891 19.024 120.283 19.248 119.547 19.248C118.843 19.248 118.219 19.04 117.675 18.624C117.163 18.208 116.907 17.616 116.907 16.848C116.907 16.112 117.099 15.52 117.483 15.072C117.899 14.624 118.379 14.336 118.923 14.208C118.603 13.632 118.027 13.152 117.195 12.768C116.395 12.384 115.531 12.192 114.603 12.192C113.803 12.192 113.003 12.384 112.203 12.768C111.403 13.152 110.667 13.792 109.995 14.688C109.323 15.552 108.779 16.752 108.363 18.288C107.947 19.792 107.739 21.68 107.739 23.952C107.739 26.768 108.059 29.008 108.699 30.672C109.339 32.336 110.171 33.536 111.195 34.272C112.251 34.976 113.403 35.328 114.651 35.328C115.483 35.328 116.331 35.168 117.195 34.848C118.059 34.528 118.875 34.016 119.643 33.312C120.411 32.576 121.067 31.6 121.611 30.384L122.523 30.72C122.203 31.744 121.675 32.784 120.939 33.84C120.203 34.864 119.243 35.712 118.059 36.384C116.875 37.056 115.419 37.392 113.691 37.392C111.707 37.392 109.915 36.88 108.315 35.856C106.715 34.832 105.435 33.376 104.475 31.488C103.547 29.568 103.083 27.296 103.083 24.672C103.083 22.048 103.547 19.744 104.475 17.76C105.435 15.744 106.763 14.176 108.459 13.056C110.155 11.904 112.091 11.328 114.267 11.328ZM113.595 36.432L112.347 40.176C112.763 40.08 113.211 40 113.691 39.936C114.171 39.872 114.667 39.84 115.179 39.84C116.075 39.84 116.779 40.032 117.291 40.416C117.835 40.8 118.107 41.36 118.107 42.096C118.107 42.992 117.803 43.696 117.195 44.208C116.619 44.752 115.915 45.136 115.083 45.36C114.251 45.616 113.451 45.744 112.683 45.744C111.787 45.744 111.003 45.68 110.331 45.552C109.691 45.456 109.147 45.344 108.699 45.216L108.891 44.352C109.051 44.384 109.291 44.416 109.611 44.448C109.963 44.48 110.331 44.496 110.715 44.496C111.355 44.496 111.995 44.432 112.635 44.304C113.307 44.176 113.867 43.952 114.315 43.632C114.795 43.344 115.035 42.912 115.035 42.336C115.035 41.44 114.363 40.992 113.019 40.992C112.763 40.992 112.395 41.008 111.915 41.04C111.435 41.104 111.019 41.2 110.667 41.328L112.299 36.432H113.595Z" fill="white"/>
<path d="M132.426 37.056C131.114 37.056 129.978 36.816 129.018 36.336C128.058 35.824 127.322 35.12 126.81 34.224C126.33 33.328 126.09 32.288 126.09 31.104C126.09 29.696 126.41 28.544 127.05 27.648C127.722 26.752 128.57 26.032 129.594 25.488C130.618 24.944 131.69 24.496 132.81 24.144C133.962 23.76 135.05 23.408 136.074 23.088C137.098 22.736 137.93 22.336 138.57 21.888C139.242 21.44 139.578 20.848 139.578 20.112V17.136C139.578 15.792 139.37 14.768 138.954 14.064C138.57 13.36 138.042 12.896 137.37 12.672C136.698 12.416 135.946 12.288 135.114 12.288C134.314 12.288 133.45 12.4 132.522 12.624C131.626 12.848 130.906 13.312 130.362 14.016C130.97 14.144 131.498 14.464 131.946 14.976C132.394 15.488 132.618 16.144 132.618 16.944C132.618 17.744 132.362 18.384 131.85 18.864C131.338 19.312 130.682 19.536 129.882 19.536C128.954 19.536 128.266 19.248 127.818 18.672C127.402 18.064 127.194 17.392 127.194 16.656C127.194 15.824 127.402 15.152 127.818 14.64C128.234 14.128 128.762 13.648 129.402 13.2C130.138 12.688 131.082 12.256 132.234 11.904C133.418 11.52 134.746 11.328 136.218 11.328C137.53 11.328 138.65 11.488 139.578 11.808C140.506 12.096 141.274 12.528 141.882 13.104C142.714 13.872 143.258 14.816 143.514 15.936C143.77 17.024 143.898 18.336 143.898 19.872V33.216C143.898 34.016 144.01 34.592 144.234 34.944C144.49 35.296 144.874 35.472 145.386 35.472C145.738 35.472 146.074 35.392 146.394 35.232C146.714 35.072 147.098 34.816 147.546 34.464L148.074 35.28C147.402 35.792 146.762 36.224 146.154 36.576C145.546 36.896 144.73 37.056 143.706 37.056C142.778 37.056 142.01 36.896 141.402 36.576C140.794 36.256 140.33 35.792 140.01 35.184C139.722 34.544 139.578 33.744 139.578 32.784C138.714 34.224 137.674 35.296 136.458 36C135.274 36.704 133.93 37.056 132.426 37.056ZM134.154 35.136C135.21 35.136 136.186 34.832 137.082 34.224C138.01 33.616 138.842 32.704 139.578 31.488V22.08C139.194 22.624 138.634 23.088 137.898 23.472C137.162 23.824 136.362 24.192 135.498 24.576C134.634 24.928 133.802 25.36 133.002 25.872C132.234 26.352 131.594 26.992 131.082 27.792C130.57 28.592 130.314 29.632 130.314 30.912C130.314 32.192 130.65 33.216 131.322 33.984C132.026 34.752 132.97 35.136 134.154 35.136Z" fill="white"/>
</svg>
